Format : AVI
Format/Info : Audio Video Interleave
File size : 772 MiB
Duration : 1h 18mn
Overal bit rate : 1379 Kbps
Writing application : AVI-Mux GUI 1.17.7, Aug 8 2006 20:59:17

Video
Format : MPEG-4 Visual
Format profile : Streaming Video@L1
Format settings, BVOP : Yes
Format settings, QPel : Yes
Format settings, GMC : 3 warppoints
Format settings, Matrix : Default
Codec ID : XVID
Codec ID/Hint : XviD
Duration : 1h 18mn
Bit rate : 1245 Kbps
Width : 672 pixels
Height : 384 pixels
Display aspect ratio : 16/9
Frame rate : 29.970 fps
Resolution : 8 bits
Colorimetry : 4:2:0
Scan type : Progressive
Bits/(Pixel*Frame) : 0.161
Stream size : 697 MiB
Writing library : XviD 50

Audio
Format : MPEG Audio
Format version : Version 1
Format profile : Layer 3
Codec ID : 55
Codec ID/Hint : MP3
Bit rate mode : Constant
Bit rate : 32.0 Kbps
Channel(s) : 2 channels
Sampling rate : 48.0 KHz
Resolution : 16 bits
Stream size : 69.5 MiB

Subtitles : English